<?xml version="1.0" standalone="no"?>
<!DOCTYPE svg PUBLIC "-//W3C//DTD SVG 20010904//EN"
 "http://www.w3.org/TR/2001/REC-SVG-20010904/DTD/svg10.dtd">
<svg version="1.0" xmlns="http://www.w3.org/2000/svg"
 width="529.000000pt" height="420.000000pt" viewBox="0 0 529.000000 420.000000"
 preserveAspectRatio="xMidYMid meet">

<g transform="translate(0.000000,420.000000) scale(0.100000,-0.100000)"
fill="#000000" stroke="none">
<path d="M0 2100 l0 -2100 2645 0 2645 0 0 2100 0 2100 -2645 0 -2645 0 0
-2100z m2668 963 c4 -10 6 -73 4 -140 -3 -103 -6 -122 -20 -125 -15 -4 -17 6
-14 104 3 72 0 113 -8 123 -8 10 -8 18 2 34 16 26 25 26 36 4z m-238 -105 c48
-33 72 -70 77 -120 13 -110 -90 -197 -199 -167 -101 26 -147 133 -98 228 40
79 148 108 220 59z m608 2 c54 -33 74 -75 70 -147 -4 -56 -8 -67 -38 -98 -64
-66 -154 -69 -221 -8 -63 57 -74 128 -29 201 29 47 76 72 135 72 32 0 62 -7
83 -20z m-308 -252 c30 -10 68 -32 85 -48 17 -16 44 -34 60 -40 49 -17 57 -60
39 -207 -15 -119 -15 -123 6 -162 11 -23 27 -41 35 -41 8 0 24 18 35 41 21 40
21 44 7 163 -20 158 -13 184 55 215 l49 22 37 -29 c39 -31 107 -112 145 -172
l22 -35 -47 40 c-54 48 -114 82 -124 72 -4 -4 0 -40 9 -80 21 -93 34 -179 42
-294 l7 -93 -541 0 -541 0 6 73 c10 139 26 250 44 316 11 36 15 70 11 74 -12
12 -66 -17 -125 -66 l-50 -41 20 34 c10 19 56 73 100 119 l82 85 49 -23 c72
-33 78 -56 58 -216 l-15 -126 22 -39 c13 -22 29 -39 37 -38 7 2 23 19 34 39
20 35 21 40 8 157 -7 66 -10 138 -6 160 5 33 11 40 42 51 19 7 52 28 73 47 21
19 44 34 51 34 8 0 32 9 54 19 22 11 47 17 55 14 8 -3 40 -14 70 -25z m-833
-399 c65 -18 128 -34 141 -37 12 -2 22 -12 22 -21 0 -23 -38 -153 -48 -163 -7
-7 -274 61 -287 74 -8 8 37 178 47 178 4 0 60 -14 125 -31z m1663 -50 c12 -44
20 -85 18 -91 -5 -13 -267 -89 -284 -83 -13 4 -58 161 -49 174 3 5 20 13 38
16 17 4 38 12 45 17 6 6 12 8 12 5 0 -2 39 6 88 18 48 13 92 24 98 24 7 1 22
-35 34 -80z m-1920 -525 c32 -31 16 -48 -46 -49 -53 0 -64 -12 -64 -73 0 -70
24 -99 56 -68 11 12 21 13 47 4 43 -15 42 -14 23 -42 -27 -42 -72 -60 -117
-47 -131 39 -130 270 1 301 45 10 69 4 100 -26z m628 10 c44 -29 25 -49 -53
-56 l-30 -3 43 -29 c47 -32 72 -70 72 -110 0 -33 -44 -83 -80 -91 -37 -8 -91
9 -116 36 -17 19 -17 21 9 46 25 25 27 26 45 10 25 -23 52 -22 52 2 0 12 -17
29 -45 45 -50 30 -65 51 -65 95 0 35 21 59 58 67 15 3 32 7 37 9 14 5 46 -5
73 -21z m927 12 c47 -20 69 -66 69 -146 0 -81 -22 -126 -71 -146 -71 -30 -144
13 -162 96 -21 100 16 182 90 200 19 4 35 8 37 9 1 1 18 -5 37 -13z m663 -12
c44 -29 25 -49 -53 -56 l-30 -3 43 -29 c47 -32 72 -70 72 -110 0 -31 -42 -82
-75 -90 -35 -9 -98 9 -120 34 -18 20 -18 21 7 47 25 24 27 25 49 9 31 -21 49
-20 49 3 0 12 -17 29 -45 45 -50 30 -65 51 -65 95 0 35 21 59 58 67 15 3 32 7
37 9 14 5 46 -5 73 -21z m-1895 -126 c20 -78 33 -146 31 -150 -13 -20 -84 -5
-84 18 0 23 -57 18 -70 -6 -11 -21 -64 -28 -75 -10 -4 6 8 71 26 145 l32 134
41 4 c23 2 46 4 52 5 7 1 26 -57 47 -140z m633 2 c18 -74 33 -141 34 -147 0
-8 -12 -13 -29 -13 -39 0 -61 9 -61 26 0 23 -61 18 -67 -6 -4 -15 -14 -20 -39
-20 -18 0 -36 5 -39 11 -4 5 8 70 26 144 l33 134 46 4 c25 2 49 3 54 2 5 0 24
-61 42 -135z m334 37 c0 -80 -4 -110 -18 -136 -19 -35 -72 -71 -104 -71 -24 0
-98 30 -98 40 0 21 52 49 80 44 40 -8 50 17 50 125 l0 90 33 4 c17 2 38 5 45
5 9 2 12 -24 12 -101z m605 81 c24 -19 27 -26 22 -67 -4 -32 -1 -51 9 -62 7
-8 17 -29 20 -46 5 -25 0 -37 -24 -64 -30 -33 -32 -34 -109 -34 l-78 0 -3 142
-3 142 63 4 c35 2 66 4 69 5 4 1 19 -8 34 -20z"/>
<path d="M2583 2609 c-75 -69 -74 -65 -49 -176 9 -39 19 -115 23 -169 8 -95 9
-99 36 -112 35 -17 78 -18 115 -3 29 12 29 14 36 111 3 54 13 132 22 172 9 40
18 82 20 93 4 15 -14 36 -65 83 l-70 62 -68 -61z"/>
<path d="M3120 1654 c-14 -41 -6 -96 16 -115 21 -18 35 0 41 53 9 85 -34 132
-57 62z"/>
<path d="M1866 1604 c-10 -25 -7 -34 9 -34 8 0 15 9 15 19 0 26 -16 35 -24 15z"/>
<path d="M2500 1613 c0 -13 0 -26 -1 -30 0 -4 4 -9 10 -11 14 -5 14 28 1 48
-8 12 -10 11 -10 -7z"/>
<path d="M3455 1680 c-8 -13 3 -30 20 -30 14 0 27 24 18 34 -10 9 -31 7 -38
-4z"/>
<path d="M3452 1558 c2 -17 10 -23 28 -23 18 0 26 6 28 23 3 19 -1 22 -28 22
-27 0 -31 -3 -28 -22z"/>
</g>
</svg>
